<?xml version="1.0" encoding="UTF-8"?>
<svg id="Layer_2_copy_2" data-name="Layer 2 copy 2" xmlns="http://www.w3.org/2000/svg"
  xmlns:xlink="http://www.w3.org/1999/xlink" viewBox="0 0 48 48">
  <defs>
    <style>
      .cls-1 {
        fill: url(#radial-gradient);
        stroke-width: 0px;
      }
    </style>
    <radialGradient id="radial-gradient" cx="24" cy="24" fx="24" fy="24" r="24" gradientUnits="userSpaceOnUse">
      <stop offset=".42" stop-color="rgba(255,255,255,1)" />
      <stop offset="1" stop-color="#fff" stop-opacity=".3" />
    </radialGradient>
  </defs>
  <path class="cls-1"
    d="M46.97,22.97c-6.23,0-10.43-1.51-11.52-4.15-.91-2.19.39-5.18,3.65-8.44.2-.21.3-.46.3-.73s-.1-.53-.3-.73c-.4-.4-1.06-.4-1.47,0-3.25,3.25-6.25,4.55-8.44,3.65-2.64-1.09-4.15-5.3-4.15-11.52C25.03.46,24.57,0,24,0s-1.03.46-1.03,1.03c0,6.23-1.51,10.43-4.15,11.52-2.19.91-5.18-.38-8.44-3.65-.4-.4-1.06-.4-1.47,0-.2.21-.3.46-.3.73s.1.53.3.73c3.25,3.25,4.55,6.25,3.65,8.44-1.09,2.64-5.3,4.15-11.52,4.15C.46,22.97,0,23.43,0,24s.46,1.03,1.03,1.03c6.23,0,10.43,1.51,11.52,4.15.91,2.19-.39,5.18-3.65,8.44-.2.21-.3.46-.3.73s.1.53.3.73c.4.4,1.06.4,1.47,0,3.25-3.25,6.25-4.55,8.44-3.65,2.64,1.09,4.15,5.3,4.15,11.52,0,.57.46,1.03,1.03,1.03s1.03-.46,1.03-1.03c0-6.23,1.51-10.43,4.15-11.52,2.19-.91,5.18.39,8.44,3.65.4.4,1.06.4,1.47,0,.2-.21.3-.46.3-.73s-.1-.53-.3-.73c-3.25-3.25-4.55-6.25-3.65-8.44,1.09-2.64,5.3-4.15,11.52-4.15.57,0,1.03-.46,1.03-1.03s-.46-1.03-1.03-1.03ZM24,30.2c-3.42,0-6.2-2.77-6.2-6.2s2.77-6.2,6.2-6.2,6.2,2.77,6.2,6.2-2.77,6.2-6.2,6.2Z" />
</svg>