<?xml version="1.0" encoding="UTF-8"?><svg id="a" xmlns="http://www.w3.org/2000/svg" viewBox="0 0 284.53 283.45"><defs><style>.b,.c,.d{fill:#eaeae5;}.b,.e,.f,.g,.d{stroke-miterlimit:10;}.b,.f,.d{stroke:#8e8d88;}.b,.g{stroke-width:4px;}.h,.c{stroke-width:0px;}.h,.e,.f,.g{fill:#8e8d88;}.e,.f,.d{stroke-width:3px;}.e,.g{stroke:#eaeae5;}</style></defs><path class="h" d="M281,141.95c0,78.15-63.13,141.5-141,141.5-40.74,0-77.44-17.34-103.17-45.06,13.6,3.72,27.9,5.7,42.67,5.7,89.47,0,162-72.79,162-162.58,0-15.09-2.05-29.69-5.88-43.55,27.91,25.85,45.38,62.87,45.38,103.99Z"/><path class="c" d="M242.5,82.51c0,89.79-72.53,162.58-162,162.58-14.77,0-29.07-1.98-42.67-5.7C14.35,214.12,0,180.22,0,142.95,0,64.8,63.13,1.45,141,1.45c36.91,0,70.49,14.23,95.62,37.51,3.83,13.86,5.88,28.46,5.88,43.55Z"/><ellipse class="g" cx="71.23" cy="101.18" rx="21" ry="18.41" transform="translate(-52.49 102.86) rotate(-55.63)"/><circle class="e" cx="130" cy="190.45" r="12"/><ellipse class="g" cx="154" cy="101.45" rx="11" ry="12" transform="translate(-.7 201.83) rotate(-66.35)"/><ellipse class="e" cx="48" cy="183.7" rx="13.75" ry="15" transform="translate(-85.42 48.61) rotate(-30)"/><ellipse class="g" cx="165" cy="47.45" rx="20" ry="23" transform="translate(75.58 194.01) rotate(-74.65)"/><ellipse class="e" cx="230" cy="131.95" rx="15" ry="12.5" transform="translate(58.01 333.76) rotate(-79.4)"/><ellipse class="e" cx="238.74" cy="76.31" rx="7.22" ry="9" transform="translate(-11.56 63.27) rotate(-14.74)"/><ellipse class="d" cx="264.5" cy="167.45" rx="9" ry="7.5" transform="translate(33.03 378.2) rotate(-74.65)"/><ellipse class="e" cx="90.5" cy="32.95" rx="9" ry="7" transform="translate(-4.35 49.66) rotate(-30)"/><ellipse class="e" cx="33" cy="57.45" rx="12" ry="6" transform="translate(-32.51 47.55) rotate(-51.54)"/><ellipse class="e" cx="23" cy="212.45" rx="6" ry="12" transform="translate(-103.14 39.96) rotate(-30)"/><ellipse class="f" cx="222.12" cy="253.57" rx="12" ry="4.41" transform="translate(-111.85 207.77) rotate(-40.97)"/><ellipse class="f" cx="277.7" cy="131.23" rx="5.3" ry="12" transform="translate(-6.6 14.99) rotate(-3.06)"/><ellipse class="e" cx="108" cy="8.45" rx="15" ry="6" transform="translate(1.41 27.76) rotate(-14.74)"/><ellipse class="d" cx="159" cy="234.7" rx="17" ry="13.75" transform="translate(-43.5 36.31) rotate(-11.47)"/><ellipse class="b" cx="225" cy="217.95" rx="17" ry="13.5" transform="translate(-87.5 239.6) rotate(-48.05)"/></svg>